<svg xmlns="http://www.w3.org/2000/svg" version="1.1" xmlns:xlink="http://www.w3.org/1999/xlink" xmlns:svgjs="http://svgjs.dev/svgjs" width="1000" height="1000" viewBox="0 0 1000 1000"><rect width="1000" height="1000" fill="#fdf7fa"></rect><g transform="matrix(0.7,0,0,0.7,149.57575757575756,282.1265587044535)"><svg viewBox="0 0 396 247" data-background-color="#fdf7fa" preserveAspectRatio="xMidYMid meet" height="623" width="1000" xmlns="http://www.w3.org/2000/svg" xmlns:xlink="http://www.w3.org/1999/xlink"><g id="tight-bounds" transform="matrix(1,0,0,1,0.2400000000000091,-0.09999999999999432)"><svg viewBox="0 0 395.52 247.2" height="247.2" width="395.52"><g><svg></svg></g><g><svg viewBox="0 0 395.52 247.2" height="247.2" width="395.52"><g transform="matrix(1,0,0,1,75.54432,59.765620020337224)"><svg viewBox="0 0 244.43135999999998 127.66875995932554" height="127.66875995932554" width="244.43135999999998"><g><svg viewBox="0 0 244.43135999999998 127.66875995932554" height="127.66875995932554" width="244.43135999999998"><g><svg viewBox="0 0 244.43135999999998 127.66875995932554" height="127.66875995932554" width="244.43135999999998"><g transform="matrix(1,0,0,1,0,61.418772953454706)"><svg viewBox="0 0 244.43135999999998 66.24998700587084" height="66.24998700587084" width="244.43135999999998"><g id="textblocktransform"><svg viewBox="0 0 244.43135999999998 66.24998700587084" height="66.24998700587084" width="244.43135999999998" id="textblock"><g><svg viewBox="0 0 244.43135999999998 66.24998700587084" height="66.24998700587084" width="244.43135999999998"><g transform="matrix(1,0,0,1,0,0)"><svg width="244.43135999999998" viewBox="0.04 -30.88 163.5 44.32" height="66.24998700587084" data-palette-color="#ffffff"><path d="M21.68-18.12L21.68-18.12Q22.84-17.24 23.9-17.24 24.96-17.24 25.4-17.52L25.4-17.52Q25.4-17 24.94-16.54 24.48-16.08 23.62-16.08 22.76-16.08 21.76-16.48L21.76-16.48Q21.68-12.72 20.52-8.78 19.36-4.84 17.52-2.18 15.68 0.48 13.88 0.48 12.08 0.48 11.12-0.92L11.12-0.92Q10.12-2.48 10.12-5.36L10.12-5.36Q10.12-7 10.32-8.88L10.32-8.88Q5.36 0 2.7 0 0.04 0 0.04-4.48L0.04-4.48Q0.04-9.12 2.32-14.4L2.32-14.4Q4.24-18.6 5.84-18.8L5.84-18.8Q6.6-18.8 6.6-17.96L6.6-17.96Q6.12-16.8 5.4-14.98 4.68-13.16 3.5-9.16 2.32-5.16 2.32-3.26 2.32-1.36 3.16-1.36L3.16-1.36Q4.2-1.36 6.42-4.72 8.64-8.08 10.32-11.44L10.32-11.44 12.04-14.76Q13.16-17 14.04-17 14.92-17 14.92-16.16L14.92-16.16Q12.48-7.8 12.48-3.08L12.48-3.08Q12.48-0.88 13.76-0.88L13.76-0.88Q15.2-0.88 16.78-3.26 18.36-5.64 19.42-9.46 20.48-13.28 20.48-17L20.48-17 20.48-17.24Q19.32-18.08 18.6-19.24 17.88-20.4 17.88-20.98 17.88-21.56 18.4-22.04 18.92-22.52 19.52-22.52L19.52-22.52Q20.28-22.52 20.88-21.18 21.48-19.84 21.68-18.12ZM35.6-19.4L35.6-19.4Q38.64-19.4 38.64-15.84L38.64-15.84Q38.64-13.8 37.28-11.56L37.28-11.56Q34.96-7.84 31.12-7.84L31.12-7.84Q30.52-7.84 30.12-8.04 29.72-8.24 29.52-8.64L29.52-8.64Q32.36-8.64 34.72-11.92L34.72-11.92Q36.64-14.56 36.64-16.76L36.64-16.76Q36.64-18.4 35.32-18.4L35.32-18.4Q32.68-18.4 30.4-14.28L30.4-14.28Q27.96-9.8 27.96-5.08L27.96-5.08Q27.96-1.08 30.24-0.28L30.24-0.28Q30.68-0.12 31.36-0.12 32.04-0.12 32.8-0.46 33.56-0.8 34.08-1.28L34.08-1.28Q35.12-2.24 35.8-3.4L35.8-3.4Q35.96-3.72 36.4-3.72L36.4-3.72Q37.12-3.72 37.08-3.48L37.08-3.48Q36.96-3.04 36.18-2 35.4-0.96 34.74-0.34 34.08 0.28 33.02 0.78 31.96 1.28 30.88 1.28L30.88 1.28Q26.64 1.28 25.48-2.72L25.48-2.72Q25.12-4.08 25.12-5.52L25.12-5.52Q25.12-8.2 26.36-11.36L26.36-11.36Q28.32-16.16 31.76-18.28L31.76-18.28Q33.64-19.4 35.6-19.4ZM43.08-17.32L43.08-17.32Q41.52-17.32 41.52-18.6L41.52-18.6Q41.52-19.08 41.92-19.2L41.92-19.2Q41.96-19.24 42.04-19.24L42.04-19.24Q42.28-18.96 42.94-18.96 43.6-18.96 45.04-19.04L45.04-19.04Q46.92-24.12 48.64-24.12L48.64-24.12Q49.32-24.12 49.32-23.36L49.32-23.36Q48.68-21.76 47.88-19.24L47.88-19.24Q51.84-19.68 53.04-19.68L53.04-19.68Q53.36-19.68 53.36-19.36L53.36-19.36Q53.36-18.72 52.52-18.72L52.52-18.72Q52.08-18.72 47.44-17.88L47.44-17.88Q44.28-7.88 44.28-1.68 44.28 4.52 46.76 4.52L46.76 4.52Q47.76 4.52 48.64 3.66 49.52 2.8 49.88 1.96L49.88 1.96Q50.04 1.52 50.56 1.72L50.56 1.72Q50.8 1.8 50.72 1.96L50.72 1.96Q50.48 2.48 50.12 3.16 49.76 3.84 48.72 4.84 47.68 5.84 46.6 5.84L46.6 5.84Q41.84 5.84 41.84-2.44L41.84-2.44Q41.84-9.44 44.44-17.4L44.44-17.4Q43.88-17.32 43.08-17.32ZM57.15 0.36L57.15 0.36Q52.23 0.36 52.23-6.4L52.23-6.4Q52.23-10.2 54.15-14L54.15-14Q56.59-18.8 59.95-18.8L59.95-18.8Q60.43-18.8 60.75-18.56 61.07-18.32 61.19-17.84L61.19-17.84Q58.67-17.84 56.83-13.8 54.99-9.76 54.99-5.84L54.99-5.84Q54.99-1.08 57.59-1.08L57.59-1.08Q59.07-1.08 60.67-3.34 62.27-5.6 63.33-9.28 64.39-12.96 64.39-16.68L64.39-16.68 64.39-17.16Q63.15-17.96 62.35-19.16 61.55-20.36 61.55-20.92 61.55-21.48 62.05-21.98 62.55-22.48 63.07-22.48L63.07-22.48Q63.83-22.48 64.55-21.12 65.27-19.76 65.55-18.04L65.55-18.04Q66.79-17.2 67.73-17.2 68.67-17.2 69.23-17.52L69.23-17.52Q69.23-16.96 68.83-16.52 68.43-16.08 67.59-16.08 66.75-16.08 65.67-16.48L65.67-16.48Q65.63-12.64 64.51-8.76 63.39-4.88 61.39-2.26 59.39 0.36 57.15 0.36ZM72.15 0L72.15 0Q68.87 0 68.87-5.16L68.87-5.16Q68.87-8.24 70.39-11.92L70.39-11.92Q72.51-17.08 75.95-18.96L75.95-18.96Q77.43-19.76 78.71-19.76 79.99-19.76 80.73-19.2 81.47-18.64 81.67-18.08L81.67-18.08 81.91-17.56Q81.79-16.88 81.23-16.88L81.23-16.88Q80.59-16.88 80.49-17.18 80.39-17.48 80.27-17.7 80.15-17.92 79.71-18.3 79.27-18.68 78.71-18.68L78.71-18.68Q76.11-18.68 73.99-14L73.99-14Q71.59-8.6 71.59-3.84L71.59-3.84Q71.59-1.44 72.55-1.44L72.55-1.44Q73.87-1.44 76.81-6.06 79.75-10.68 82.11-15.52L82.11-15.52Q83.31-17.96 84.63-17.96L84.63-17.96Q85.47-17.96 85.47-17L85.47-17Q85.31-16.72 84.99-16.08 84.67-15.44 83.83-12.42 82.99-9.4 82.31-5.5 81.63-1.6 81.15 0.6L81.15 0.6Q84.19 1.12 84.67 3.24L84.67 3.24Q84.75 3.6 84.75 4.22 84.75 4.84 84.27 5.3 83.79 5.76 83.43 5.76L83.43 5.76Q83.51 5.48 83.47 4.78 83.43 4.08 83.21 3.6 82.99 3.12 82.39 2.6 81.79 2.08 80.83 1.84L80.83 1.84Q79.59 6.72 77.27 9.88L77.27 9.88Q74.63 13.44 70.15 13.44L70.15 13.44Q66.87 13.44 65.79 11.12L65.79 11.12Q65.75 11 65.75 10.92L65.75 10.92Q65.75 10.68 66.19 10.58 66.63 10.48 66.79 10.88L66.79 10.88Q67.51 12.52 70.15 12.52L70.15 12.52Q73.75 12.52 75.75 9.12L75.75 9.12Q77.55 6.12 78.51 1.64L78.51 1.64Q71.31 1.8 67.39 7.16L67.39 7.16Q67.15 7.52 66.63 7.28L66.63 7.28Q66.35 7.12 66.47 6.88L66.47 6.88Q68.19 4.28 71.27 2.46 74.35 0.64 78.75 0.48L78.75 0.48Q79.19-1.52 79.53-3.74 79.87-5.96 80.11-7.24 80.35-8.52 80.43-9.08L80.43-9.08 79.99-9.08Q74.71 0 72.15 0ZM97.71-19.4L97.71-19.4Q100.75-19.4 100.75-15.84L100.75-15.84Q100.75-13.8 99.39-11.56L99.39-11.56Q97.07-7.84 93.23-7.84L93.23-7.84Q92.63-7.84 92.23-8.04 91.83-8.24 91.63-8.64L91.63-8.64Q94.47-8.64 96.83-11.92L96.83-11.92Q98.75-14.56 98.75-16.76L98.75-16.76Q98.75-18.4 97.43-18.4L97.43-18.4Q94.79-18.4 92.51-14.28L92.51-14.28Q90.07-9.8 90.07-5.08L90.07-5.08Q90.07-1.08 92.35-0.28L92.35-0.28Q92.79-0.12 93.47-0.12 94.15-0.12 94.91-0.46 95.67-0.8 96.19-1.28L96.19-1.28Q97.23-2.24 97.91-3.4L97.91-3.4Q98.07-3.72 98.51-3.72L98.51-3.72Q99.23-3.72 99.19-3.48L99.19-3.48Q99.07-3.04 98.29-2 97.51-0.96 96.85-0.34 96.19 0.28 95.13 0.78 94.07 1.28 92.99 1.28L92.99 1.28Q88.75 1.28 87.59-2.72L87.59-2.72Q87.23-4.08 87.23-5.52L87.23-5.52Q87.23-8.2 88.47-11.36L88.47-11.36Q90.43-16.16 93.87-18.28L93.87-18.28Q95.75-19.4 97.71-19.4ZM105.19-17.32L105.19-17.32Q103.63-17.32 103.63-18.6L103.63-18.6Q103.63-19.08 104.03-19.2L104.03-19.2Q104.07-19.24 104.15-19.24L104.15-19.24Q104.39-18.96 105.05-18.96 105.71-18.96 107.15-19.04L107.15-19.04Q109.03-24.12 110.75-24.12L110.75-24.12Q111.43-24.12 111.43-23.36L111.43-23.36Q110.79-21.76 109.99-19.24L109.99-19.24Q113.95-19.68 115.15-19.68L115.15-19.68Q115.47-19.68 115.47-19.36L115.47-19.36Q115.47-18.72 114.63-18.72L114.63-18.72Q114.19-18.72 109.55-17.88L109.55-17.88Q106.39-7.88 106.39-1.68 106.39 4.52 108.87 4.52L108.87 4.52Q109.87 4.52 110.75 3.66 111.63 2.8 111.99 1.96L111.99 1.96Q112.15 1.52 112.67 1.72L112.67 1.72Q112.91 1.8 112.83 1.96L112.83 1.96Q112.59 2.48 112.23 3.16 111.87 3.84 110.83 4.84 109.79 5.84 108.71 5.84L108.71 5.84Q103.95 5.84 103.95-2.44L103.95-2.44Q103.95-9.44 106.55-17.4L106.55-17.4Q105.99-17.32 105.19-17.32ZM121.7-11.6Q119.58-7.76 118.4-4.8 117.22-1.84 117.22-1.3 117.22-0.76 116.66-0.76L116.66-0.76Q115.46-0.76 115.46-3.96L115.46-3.96Q115.46-10.32 116.74-16.74 118.02-23.16 119.78-27.02 121.54-30.88 123.06-30.88L123.06-30.88Q123.7-30.88 123.7-30.24L123.7-30.24Q121.58-25.56 120.16-19.56 118.74-13.56 117.78-6.76L117.78-6.76 118.06-6.76Q123.14-19.24 128.02-19.24L128.02-19.24Q130.06-19.24 130.06-17.28L130.06-17.28Q129.78-16.36 129.34-14.86 128.9-13.36 128.18-9.48 127.46-5.6 127.46-2.68L127.46-2.68Q127.46 1.56 128.7 1.56L128.7 1.56Q129.14 1.56 129.58 1.18 130.02 0.8 130.18 0.8L130.18 0.8Q130.74 0.8 130.14 1.68L130.14 1.68Q129.98 1.96 129.44 2.44 128.9 2.92 128.38 2.92L128.38 2.92Q126.82 2.92 125.96 0.74 125.1-1.44 125.1-4.92L125.1-4.92Q125.1-10.8 126.86-17.04L126.86-17.04Q126.94-17.64 126.38-17.56L126.38-17.56Q126.1-17.52 125.82-17.24L125.82-17.24Q123.82-15.44 121.7-11.6ZM143.06-19.4L143.06-19.4Q146.1-19.4 146.1-15.84L146.1-15.84Q146.1-13.8 144.74-11.56L144.74-11.56Q142.42-7.84 138.58-7.84L138.58-7.84Q137.98-7.84 137.58-8.04 137.18-8.24 136.98-8.64L136.98-8.64Q139.82-8.64 142.18-11.92L142.18-11.92Q144.1-14.56 144.1-16.76L144.1-16.76Q144.1-18.4 142.78-18.4L142.78-18.4Q140.14-18.4 137.86-14.28L137.86-14.28Q135.42-9.8 135.42-5.08L135.42-5.08Q135.42-1.08 137.7-0.28L137.7-0.28Q138.14-0.12 138.82-0.12 139.5-0.12 140.26-0.46 141.02-0.8 141.54-1.28L141.54-1.28Q142.58-2.24 143.26-3.4L143.26-3.4Q143.42-3.72 143.86-3.72L143.86-3.72Q144.58-3.72 144.54-3.48L144.54-3.48Q144.42-3.04 143.64-2 142.86-0.96 142.2-0.34 141.54 0.28 140.48 0.78 139.42 1.28 138.34 1.28L138.34 1.28Q134.1 1.28 132.94-2.72L132.94-2.72Q132.58-4.08 132.58-5.52L132.58-5.52Q132.58-8.2 133.82-11.36L133.82-11.36Q135.78-16.16 139.22-18.28L139.22-18.28Q141.1-19.4 143.06-19.4ZM160.9-11.48L160.9-11.48Q159.38-11.48 159.38-14.8L159.38-14.8Q159.38-16.68 160.1-18.32L160.1-18.32Q157.38-15.96 154.02-9.54 150.66-3.12 150.66-1.16L150.66-1.16Q150.66-0.68 150.02-0.68L150.02-0.68Q148.86-0.68 148.86-3.84L148.86-3.84Q148.86-9.8 150.06-14.64 151.26-19.48 152.98-19.48L152.98-19.48Q153.74-19.48 153.74-18.6L153.74-18.6Q151.9-12.76 151.1-6.64L151.1-6.64 151.38-6.64Q154.62-14.12 158.54-18.32L158.54-18.32Q160.78-20.72 162.62-20.72L162.62-20.72Q163.02-20.72 163.28-20.48 163.54-20.24 163.54-19.88L163.54-19.88Q163.26-19.6 162.86-19.04 162.46-18.48 161.78-16.38 161.1-14.28 161.1-11.8L161.1-11.8Q161.1-11.48 160.9-11.48Z" opacity="1" transform="matrix(1,0,0,1,0,0)" fill="#ffffff" class="wordmark-text-0" data-fill-palette-color="primary" id="text-0"></path></svg></g></svg></g></svg></g></svg></g><g transform="matrix(1,0,0,1,96.78721908143997,0)"><svg viewBox="0 0 50.85692183712005 45.778741021056746" height="45.778741021056746" width="50.85692183712005"><g><svg xmlns="http://www.w3.org/2000/svg" xmlns:xlink="http://www.w3.org/1999/xlink" version="1.1" x="0" y="0" viewBox="5.014080894320318 9.51242103627598 89.97254485795074 80.98857896372402" enable-background="new 0 0 100 100" xml:space="preserve" height="45.778741021056746" width="50.85692183712005" class="icon-icon-0" data-fill-palette-color="accent" id="icon-0"><g fill="#ffffff" data-fill-palette-color="accent"><g fill="#ffffff" data-fill-palette-color="accent"><path d="M49.785 90.501c-0.48 0-0.968-0.116-1.42-0.359C30.679 80.613 16.376 67.373 9.124 53.817c-8.66-16.186-2.467-32.678 7.757-39.979 8.403-5.999 22.037-7.402 35.104 6.656 1.128 1.213 1.059 3.111-0.155 4.239-1.214 1.129-3.111 1.061-4.24-0.155-8.849-9.52-19.025-11.709-27.223-5.857C9.852 26.23 9.083 41.023 14.414 50.987c6.71 12.543 20.122 24.889 36.797 33.872 1.458 0.785 2.004 2.604 1.218 4.063C51.887 89.929 50.853 90.501 49.785 90.501z" fill="#ffffff" data-fill-palette-color="accent"></path></g><g fill="#ffffff" data-fill-palette-color="accent"><path d="M50.215 90.501c-1.068 0-2.102-0.572-2.644-1.578-0.786-1.459-0.24-3.278 1.218-4.064 16.674-8.982 30.086-21.328 36.796-33.871 5.331-9.964 4.562-24.758-5.954-32.266-8.195-5.854-18.374-3.664-27.222 5.857-1.13 1.214-3.027 1.284-4.24 0.155-1.213-1.128-1.283-3.026-0.155-4.239C61.081 6.437 74.718 7.838 83.118 13.839c10.225 7.3 16.419 23.793 7.759 39.979-7.252 13.557-21.556 26.796-39.242 36.324C51.183 90.385 50.695 90.501 50.215 90.501z" fill="#ffffff" data-fill-palette-color="accent"></path></g></g></svg></g></svg></g><g></g></svg></g></svg></g></svg></g><g><path d="M104.913 44.126A122.216 122.216 0 0 1 290.607 44.126L284.632 44.126A116.241 116.241 0 0 0 110.888 44.126L104.913 44.126M104.913 203.074A122.216 122.216 0 0 0 290.607 203.074L284.632 203.074A116.241 116.241 0 0 1 110.888 203.074L104.913 203.074" fill="#ffffff" stroke="transparent" data-fill-palette-color="tertiary"></path></g></svg></g><defs></defs></svg><rect width="395.52" height="247.2" fill="none" stroke="none" visibility="hidden"></rect></g></svg></g></svg>